# xmcd
#
# Track frame offsets: 
#        187
#        39300
#        64050
#        110550
#        141075
#        161550
#        189225
#
# Disc length: 2871 seconds
#
# Revision: 2
# Processed by: cddbd v1.5.2PL0 Copyright (c) Steve Scherf et al.
# Submitted via: ExactAudioCopy v1.0b3
#
DISCID=580b3507
DTITLE=Chet Baker - LOVE SONG
DYEAR=1986
DGENRE=Jazz
TTITLE0=I'M A FOOL TO WANT YOU
TTITLE1=YOU AND THE NIGHT AND THE MUSIC
TTITLE2=ROUND MIDNIGHT
TTITLE3=AS TIME GOES BY
TTITLE4=YOU'D BE SO NICE TO COME HOME TO
TTITLE5=ANGEL EYES
TTITLE6=CARAVELLE
EXTD=YEAR: 1986
EXTT0=
EXTT1=
EXTT2=
EXTT3=
EXTT4=
EXTT5=
EXTT6=
PLAYORDER=
